<svg width="233" height="270" viewBox="0 0 233 270" fill="none" xmlns="http://www.w3.org/2000/svg">
<path d="M162.259 232.895H90.3373C78.002 232.895 67.91 222.843 67.91 210.557V147.265C67.91 134.979 78.002 124.927 90.3373 124.927H162.26C174.596 124.927 184.687 134.979 184.687 147.265V210.557C184.687 222.842 174.594 232.895 162.259 232.895Z" fill="white"/>
<path d="M162.259 124.926C174.595 124.926 184.687 134.978 184.687 147.264V210.556C184.687 222.842 174.595 232.894 162.259 232.894H90.3376C78.0022 232.894 67.9103 222.842 67.9103 210.556V147.264C67.9103 134.978 78.0022 124.926 90.3376 124.926H162.259V124.926ZM162.259 121.396H90.3376C86.8443 121.396 83.4483 122.084 80.2437 123.44C77.1545 124.747 74.3783 126.614 71.992 128.992C69.6058 131.369 67.73 134.135 66.4174 137.211C65.0561 140.402 64.3654 143.785 64.3654 147.264V210.556C64.3654 214.035 65.0561 217.418 66.4174 220.61C67.73 223.687 69.6048 226.452 71.992 228.828C74.3783 231.205 77.1555 233.073 80.2437 234.381C83.4483 235.737 86.8443 236.425 90.3376 236.425H162.26C165.754 236.425 169.15 235.737 172.354 234.381C175.444 233.073 178.22 231.206 180.606 228.828C182.992 226.452 184.868 223.686 186.181 220.61C187.542 217.418 188.233 214.035 188.233 210.556V147.264C188.233 143.785 187.542 140.402 186.181 137.211C184.868 134.134 182.993 131.369 180.606 128.992C178.22 126.615 175.443 124.747 172.354 123.44C169.15 122.084 165.753 121.396 162.259 121.396Z" fill="#789DFF"/>
<path d="M183.079 193.759C171.881 195.066 160.719 195.388 160.719 195.388C160.719 195.388 155.035 167.158 153.459 145.021C152.298 128.619 153.39 115.566 160.719 119.823C164.091 121.782 167.974 125.471 172.024 130.151C187.211 147.709 204.66 179.238 205.617 185.78C206.235 189.988 194.641 192.401 183.079 193.759Z" fill="white"/>
<path d="M159.22 197.268L158.914 195.75C158.88 195.576 155.403 178.23 153.154 160.27C151.827 149.68 151.179 140.937 151.225 134.284C151.289 125.197 152.614 120.043 155.394 118.065C156.615 117.196 158.691 116.522 161.649 118.24C171.398 123.906 183.772 141.953 190.281 152.206C194.622 159.046 198.777 166.236 201.983 172.45C204.242 176.828 207.022 182.649 207.442 185.515C207.565 186.347 207.483 187.609 206.399 188.894C204.832 190.752 201.578 192.207 196.156 193.47C192.181 194.396 187.073 195.193 180.974 195.839C170.648 196.931 160.871 197.221 160.774 197.224L159.22 197.268ZM158.181 120.846C157.825 120.846 157.639 120.979 157.537 121.051C156.334 121.906 152.731 127.227 156.808 159.796C158.656 174.547 161.337 188.887 162.228 193.497C165.372 193.371 172.832 193.009 180.605 192.186C198.65 190.274 202.681 187.596 203.577 186.534C203.825 186.24 203.805 186.104 203.796 186.045C203.272 182.479 196.465 168.818 187.166 154.167C176.397 137.2 166.42 125.26 159.792 121.41C159.041 120.973 158.529 120.846 158.181 120.846Z" fill="#789DFF"/>
<path d="M103.739 118.782L101.472 135.859L100.183 145.567L97.4331 166.296C97.4331 166.296 92.4074 169.701 84.0474 172.398C80.9238 173.408 77.3262 174.311 73.3559 174.903C66.8656 175.876 59.3615 176 51.2314 174.343C30.3142 170.076 17.7611 154.601 12.3262 146.82C1.822 131.802 0.205507 127.742 3.12553 121.42C5.35479 116.575 9.17421 115.69 9.17421 115.69C9.17421 115.69 8.98582 111.818 12.0628 110.441C21.2847 106.316 33.1644 117.332 33.1644 117.332C33.1644 117.332 33.607 105.486 39.9727 108.221C44.3583 110.106 45.3529 123.004 45.3529 123.004C45.3529 123.004 51.2395 130.537 60.5911 131.537C65.478 132.06 72.2407 130.647 78.9569 128.597C79.0349 128.573 79.1139 128.551 79.1919 128.523C82.7712 127.422 86.3273 126.146 89.5836 124.884C91.0441 124.32 92.4439 123.755 93.7565 123.215C99.6249 120.791 103.739 118.782 103.739 118.782Z" fill="white"/>
<path opacity="0.35" d="M12.3232 146.82C17.7631 154.599 30.3143 170.077 51.2294 174.343C64.3305 177.013 75.811 175.052 84.0484 172.395C92.4084 169.701 97.4331 166.294 97.4331 166.294L97.8018 149.937C97.8018 149.937 92.1056 144.469 86.8003 146.698C80.4255 149.377 82.4684 158.481 73.364 161.013C48.0541 168.052 27.4935 155.191 20.8776 149.545C11.6993 141.713 9.30492 136.78 8.01355 134.744C5.34067 130.532 3.2765 127.222 2.11275 124.259C0.926715 129.272 3.45881 134.142 12.3232 146.82Z" fill="#789DFF"/>
<path d="M63.8512 177.449C59.4838 177.449 55.1347 177.013 50.8605 176.14C41.4583 174.222 32.6861 169.905 24.789 163.305C19.7066 159.058 15.0039 153.864 10.8128 147.869C5.69797 140.553 2.44675 135.527 0.963951 131.49C-0.457064 127.621 -0.316279 124.482 1.44809 120.652C3.18511 116.881 5.8114 115.147 7.39852 114.404C7.65781 112.465 8.66761 109.95 11.3071 108.77C18.8061 105.414 27.4599 110.607 31.7432 113.802C31.7847 113.586 31.8313 113.364 31.8809 113.139C32.5909 109.967 33.8164 107.814 35.5231 106.742C36.5714 106.083 38.3205 105.513 40.7058 106.539C43.1255 107.58 44.8908 110.646 46.1042 115.911C46.7251 118.608 47.0239 121.14 47.1363 122.262C48.4388 123.731 53.5293 128.936 60.7894 129.712C74.0424 131.126 102.639 117.274 102.927 117.133C103.536 116.836 104.261 116.896 104.812 117.292C105.363 117.686 105.652 118.352 105.564 119.022L99.2621 166.534C99.1932 167.053 98.9066 167.517 98.4721 167.81C98.2614 167.954 93.2074 171.346 84.8038 174.081C79.8814 175.683 74.8172 176.726 69.753 177.183C67.7851 177.361 65.8161 177.449 63.8512 177.449ZM9.60044 117.472C9.36242 117.537 6.54976 118.376 4.79654 122.182C2.43561 127.306 3.01596 130.293 13.8361 145.771C24.0091 160.322 37.0666 169.58 51.5989 172.544C64.8397 175.244 76.3405 172.972 83.6573 170.592C89.8599 168.573 94.1371 166.165 95.7192 165.204L101.468 121.866C98.465 123.232 93.5527 125.377 88.0398 127.435C75.7683 132.015 66.4664 134.009 60.3964 133.361C50.3825 132.293 44.1596 124.464 43.8993 124.132C43.6774 123.847 43.5438 123.504 43.5164 123.145C43.5144 123.115 43.2642 119.982 42.5026 116.692C41.2193 111.144 39.6838 110.096 39.2442 109.907C38.1443 109.434 37.6693 109.732 37.49 109.844C35.9414 110.814 35.1027 114.848 35.0015 117.401C34.9731 118.117 34.5274 118.753 33.862 119.026C33.1956 119.299 32.4319 119.162 31.9042 118.673C31.7948 118.572 20.8085 108.541 12.8162 112.117C10.9749 112.941 11.0083 115.427 11.0134 115.605C11.068 116.511 10.4907 117.285 9.60044 117.472Z" fill="#789DFF"/>
<path d="M34.6799 117.33C34.7224 117.846 34.6454 118.315 34.5421 118.721C34.4905 118.931 34.4266 119.113 34.3618 119.299C34.296 119.474 34.2241 119.651 34.1532 119.81C33.8625 120.462 33.5485 121.001 33.2497 121.525C32.9499 122.045 32.6613 122.541 32.3929 123.037L32.1964 123.41C32.1346 123.535 32.0688 123.659 32.009 123.785L31.8348 124.165L31.6687 124.548L31.5178 124.938L31.378 125.333C31.3304 125.465 31.2949 125.6 31.2524 125.734C31.2078 125.869 31.1744 126.006 31.138 126.142C30.9982 126.691 30.8777 127.256 30.8078 127.838C30.7318 128.419 30.6832 129.015 30.669 129.621C30.6538 129.926 30.6599 130.231 30.6569 130.541C30.6518 130.697 30.665 130.85 30.666 131.006C30.669 131.163 30.6741 131.319 30.6731 131.478V131.489C30.6731 131.611 30.5738 131.71 30.4502 131.71C30.3642 131.71 30.2902 131.661 30.2538 131.59C29.958 131.019 29.6906 130.425 29.484 129.806C29.2662 129.189 29.1103 128.545 28.9958 127.886C28.771 126.569 28.776 125.175 29.0232 123.813L29.1254 123.304C29.1649 123.137 29.2085 122.97 29.25 122.802C29.2946 122.635 29.3442 122.472 29.3908 122.306C29.4394 122.141 29.4972 121.981 29.5508 121.818C29.7727 121.173 30.0471 120.559 30.3297 119.984C30.6113 119.41 30.9111 118.869 31.1542 118.399C31.4104 117.922 31.5552 117.536 31.6403 117.327L31.8186 116.89C32.1285 116.133 32.9965 115.769 33.7572 116.077C34.295 116.297 34.6343 116.793 34.6799 117.33Z" fill="#789DFF"/>
<path d="M49.206 175.603C48.7411 175.603 48.2924 175.347 48.0716 174.904C47.7596 174.281 48.0148 173.524 48.6408 173.213C53.7485 170.682 57.2388 162.784 58.7317 150.37C59.8894 140.75 59.4083 131.803 59.4032 131.715C59.3647 131.02 59.8985 130.424 60.5964 130.385C61.2912 130.346 61.8918 130.878 61.9313 131.573C61.9364 131.664 62.4296 140.802 61.2496 150.637C60.5518 156.456 59.4124 161.394 57.8627 165.314C55.8573 170.386 53.1337 173.804 49.7691 175.471C49.5878 175.561 49.3954 175.603 49.206 175.603Z" fill="#789DFF"/>
<g opacity="0.35">
<g opacity="0.35">
<g opacity="0.35">
<g opacity="0.35">
<path opacity="0.35" d="M212.605 256.771V256.514C210.58 256.6 212.605 256.771 212.605 256.771Z" fill="#789DFF"/>
</g>
</g>
</g>
</g>
<path d="M187.05 225.792H65.4183C65.4183 225.792 66.1597 204.885 73.355 174.902C76.2385 162.877 80.1633 149.393 85.4928 135.211C86.7731 131.806 88.1374 128.361 89.5837 124.883C93.628 115.18 98.3448 105.242 103.846 95.3042H148.624C153.171 103.521 157.183 111.733 160.721 119.822C163.01 125.053 165.101 130.228 167.008 135.311C175.332 157.471 180.22 177.925 183.08 193.758C186.608 213.29 187.05 225.792 187.05 225.792Z" fill="white"/>
<path d="M170.352 150.904C172.703 153.518 173.778 156.56 174.77 159.616C175.269 161.144 175.76 162.676 176.229 164.214C176.464 164.983 176.705 165.75 176.914 166.526C177.13 167.3 177.34 168.077 177.55 168.852L178.166 171.184C178.369 171.961 178.573 172.738 178.764 173.52L179.883 178.211C180.065 178.994 180.265 179.772 180.443 180.555L180.977 182.906L181.525 185.253C181.709 186.035 181.9 186.816 182.072 187.601L183.127 192.305C183.308 193.088 183.464 193.877 183.632 194.662L184.126 197.022L184.373 198.201L184.497 198.791L184.612 199.383L185.075 201.748C185.229 202.537 185.388 203.325 185.555 204.111C185.715 204.899 185.876 205.686 186.044 206.473C186.749 209.614 187.264 212.794 187.477 216.017C187.505 216.419 187.536 216.821 187.555 217.225L187.607 218.437C187.633 219.246 187.656 220.054 187.643 220.868C187.638 221.68 187.62 222.493 187.567 223.309C187.52 224.125 187.452 224.941 187.328 225.764C187.305 225.922 187.156 226.031 186.997 226.008C186.889 225.991 186.804 225.918 186.767 225.823L186.766 225.819C186.185 224.281 185.71 222.735 185.261 221.19C185.04 220.417 184.828 219.642 184.622 218.868L184.326 217.705C184.233 217.317 184.137 216.929 184.04 216.541C183.663 214.989 183.331 213.432 183.032 211.868C182.888 211.086 182.757 210.301 182.638 209.514C182.509 208.728 182.391 207.941 182.268 207.154C182.149 206.366 182.023 205.581 181.896 204.795C181.76 204.01 181.609 203.228 181.456 202.446L180.997 200.101L180.883 199.515L180.76 198.93L180.515 197.76L180.025 195.421C179.859 194.642 179.704 193.86 179.525 193.084L178.477 188.419C178.309 187.64 178.113 186.867 177.927 186.093L177.355 183.771L176.769 181.454C176.673 181.068 176.565 180.684 176.462 180.299L176.147 179.146L174.882 174.536C174.444 173.004 173.996 171.474 173.57 169.939C173.357 169.171 173.145 168.403 172.938 167.634L172.784 167.057L172.621 166.482L172.3 165.331C171.872 163.796 171.465 162.255 171.065 160.711L170.772 159.551C170.673 159.165 170.565 158.782 170.462 158.396C170.256 157.625 170.084 156.845 169.954 156.051C169.826 155.256 169.735 154.449 169.701 153.624C169.683 153.211 169.681 152.793 169.696 152.37C169.712 151.946 169.739 151.517 169.814 151.074L169.817 151.057C169.846 150.89 170.005 150.777 170.173 150.805C170.245 150.818 170.308 150.854 170.352 150.904Z" fill="#789DFF"/>
<path d="M65.1329 225.783C64.9455 225.367 64.8169 224.954 64.6964 224.54C64.5759 224.124 64.4857 223.714 64.4057 223.3C64.2436 222.473 64.1565 221.651 64.1079 220.831C64.0856 220.42 64.0704 220.01 64.0715 219.602C64.0725 219.193 64.0887 218.787 64.1079 218.38L64.1768 217.161C64.1981 216.754 64.2234 216.347 64.2568 215.942C64.3834 214.32 64.507 212.696 64.6974 211.082C64.7835 210.272 64.8797 209.465 64.9749 208.657C65.0215 208.254 65.0843 207.852 65.139 207.449L65.3102 206.241L65.6677 203.829C65.7933 203.026 65.9391 202.227 66.0759 201.426C66.3554 199.825 66.6188 198.222 66.9378 196.63C67.2477 195.035 67.5313 193.436 67.8483 191.844C68.1704 190.253 68.4844 188.66 68.7943 187.066C68.8733 186.668 68.9442 186.268 69.0303 185.872L69.2856 184.681L69.795 182.301L70.3045 179.92C70.348 179.721 70.3875 179.522 70.4331 179.325L70.5729 178.733L70.8524 177.547L71.9696 172.807C72.0597 172.411 72.161 172.018 72.2613 171.625C72.3585 171.23 72.4578 170.837 72.551 170.442C72.7393 169.652 72.9257 168.862 73.105 168.071C73.2883 167.28 73.4676 166.487 73.657 165.697C73.8393 164.905 74.0682 164.126 74.2971 163.346C74.5311 162.569 74.7792 161.795 75.0395 161.024C75.3008 160.254 75.5783 159.489 75.8589 158.725L76.2924 157.583C76.3653 157.393 76.4463 157.206 76.5253 157.017C76.6053 156.83 76.6823 156.641 76.7654 156.453C77.0925 155.704 77.4237 154.957 77.7762 154.218C78.1246 153.476 78.4882 152.741 78.8701 152.013C79.2519 151.284 79.6479 150.561 80.0875 149.853C80.1716 149.717 80.3508 149.674 80.4876 149.759C80.5807 149.816 80.6304 149.918 80.6253 150.021V150.025C80.443 153.354 79.8171 156.522 79.1992 159.688C79.0402 160.478 78.8782 161.267 78.6999 162.052C78.5206 162.836 78.3282 163.616 78.1236 164.391C77.6962 165.939 77.2667 167.485 76.8191 169.029C76.5952 169.801 76.3775 170.573 76.1617 171.347C76.0523 171.733 75.95 172.122 75.8457 172.509C75.7434 172.898 75.6381 173.285 75.551 173.677L74.446 178.367L74.1695 179.54L74.0317 180.126C73.9861 180.321 73.9466 180.518 73.9041 180.714L73.3997 183.069L72.8953 185.425L72.6431 186.603C72.5591 186.996 72.4882 187.391 72.4102 187.784C71.1158 194.078 70.2457 200.448 69.4 206.804L69.0718 209.187C68.9696 209.982 68.8673 210.777 68.7558 211.571L68.1036 216.335C67.9851 217.129 67.8899 217.923 67.7825 218.717C67.7268 219.114 67.6681 219.511 67.5941 219.906C67.5212 220.302 67.4493 220.697 67.3602 221.092C67.1829 221.881 66.9631 222.668 66.7028 223.452C66.5732 223.845 66.4182 224.238 66.2592 224.63C66.0961 225.021 65.9189 225.414 65.7001 225.805L65.6981 225.809C65.613 225.96 65.4216 226.015 65.2696 225.93C65.2058 225.894 65.1603 225.841 65.1329 225.783Z" fill="#789DFF"/>
<path d="M100.45 199.414C93.5134 202.211 82.7773 201.626 75.4585 200.743C71.0689 200.215 67.9868 196.18 68.634 191.823C69.2245 187.847 72.738 184.956 76.7681 185.143C83.6139 185.463 93.8831 185.613 100.387 184.176" fill="white"/>
<g opacity="0.35">
<g opacity="0.35">
<g opacity="0.35">
<g opacity="0.35">
<path opacity="0.35" d="M100.452 199.413C93.5131 202.214 82.777 201.623 75.4583 200.746C71.0686 200.217 67.9875 196.18 68.6347 191.826C68.7634 190.937 69.0439 190.103 69.442 189.341C70.5976 191.539 72.7864 193.159 75.4583 193.482C82.7639 194.365 93.4817 194.95 100.422 192.167L100.452 199.413Z" fill="#789DFF"/>
</g>
</g>
</g>
</g>
<path d="M86.6584 203.308C82.6445 203.308 78.6539 202.978 75.2366 202.566C72.6194 202.251 70.297 200.927 68.6967 198.839C67.0934 196.747 66.4239 194.16 66.8108 191.555C67.1632 189.182 68.3807 187.034 70.2382 185.508C72.0978 183.979 74.4476 183.199 76.8541 183.312C86.9389 183.783 95.1541 183.454 99.9864 182.386C100.957 182.173 103.367 182.164 104.79 186.721C106.236 191.351 106.076 199.127 101.142 201.117C97.0734 202.756 91.8472 203.308 86.6584 203.308ZM76.3943 186.97C73.4226 186.97 70.8966 189.126 70.457 192.091C70.217 193.707 70.6322 195.313 71.6268 196.611C72.6184 197.906 74.0577 198.726 75.6802 198.922C86.1459 200.183 94.6983 199.754 99.7595 197.713C101.263 197.107 101.694 194.681 101.81 193.666C102.216 190.115 101.131 186.834 100.451 186.04C93.8556 187.421 83.9166 187.315 76.6829 186.977C76.5857 186.972 76.4895 186.97 76.3943 186.97Z" fill="#789DFF"/>
<path d="M153.512 199.414C160.449 202.211 171.185 201.626 178.504 200.743C182.894 200.215 185.976 196.18 185.328 191.823C184.738 187.847 181.224 184.956 177.194 185.143C170.349 185.463 160.079 185.613 153.576 184.176" fill="white"/>
<g opacity="0.35">
<g opacity="0.35">
<g opacity="0.35">
<g opacity="0.35">
<path opacity="0.35" d="M178.502 200.747C171.183 201.623 160.448 202.214 153.508 199.413L153.538 192.099C160.477 194.882 171.195 194.297 178.502 193.415C181.162 193.098 183.338 191.49 184.5 189.304C184.909 190.071 185.197 190.918 185.331 191.825C185.974 196.18 182.893 200.217 178.502 200.747Z" fill="#789DFF"/>
</g>
</g>
</g>
</g>
<path d="M167.304 203.308C162.116 203.308 156.89 202.756 152.821 201.116C147.887 199.126 147.727 191.35 149.172 186.72C150.594 182.165 153.006 182.172 153.976 182.385C158.81 183.454 167.025 183.783 177.109 183.312C179.517 183.2 181.865 183.979 183.724 185.507C185.582 187.033 186.799 189.181 187.152 191.554C187.539 194.159 186.868 196.746 185.266 198.838C183.666 200.926 181.343 202.25 178.726 202.565C175.309 202.977 171.317 203.308 167.304 203.308ZM153.512 186.04C152.833 186.834 151.748 190.115 152.153 193.666C152.269 194.681 152.7 197.107 154.204 197.713C159.265 199.754 167.818 200.184 178.283 198.922C179.905 198.726 181.345 197.906 182.337 196.612C183.331 195.313 183.747 193.708 183.507 192.091C183.053 189.031 180.377 186.834 177.282 186.978C170.046 187.315 160.108 187.42 153.512 186.04Z" fill="#789DFF"/>
<path d="M156.193 179.141V203.56C156.193 208.09 152.47 211.799 147.921 211.799H102.77C98.2273 211.799 94.5042 208.09 94.5042 203.56V179.141C94.5042 174.611 98.2273 170.908 102.77 170.908H147.921C150.599 170.908 152.99 172.194 154.506 174.172C155.563 175.554 156.193 177.278 156.193 179.141Z" fill="white"/>
<g opacity="0.35">
<g opacity="0.35">
<g opacity="0.35">
<g opacity="0.35">
<path opacity="0.35" d="M156.192 179.141V203.56C156.192 208.091 152.471 211.797 147.922 211.797H102.771C98.2228 211.797 94.5016 208.091 94.5016 203.56V194.426C101.283 201.312 114.619 205.635 126.85 205.7C130.78 205.721 133.95 202.625 134.23 198.72C134.233 198.68 134.236 198.641 134.239 198.603C134.54 195.177 137.373 192.403 140.817 192.156C144.738 191.874 148.049 194.759 148.437 198.509C154.357 191.229 152.623 178.577 154.506 174.172C155.565 175.556 156.192 177.277 156.192 179.141Z" fill="#789DFF"/>
</g>
</g>
</g>
</g>
<path d="M147.923 213.633H102.771C97.196 213.633 92.6605 209.115 92.6605 203.563V179.141C92.6605 173.589 97.196 169.071 102.771 169.071H147.923C153.498 169.071 158.033 173.589 158.033 179.141V203.563C158.033 209.115 153.498 213.633 147.923 213.633ZM102.771 172.741C99.2278 172.741 96.3452 175.612 96.3452 179.141V203.563C96.3452 207.092 99.2278 209.963 102.771 209.963H147.923C151.466 209.963 154.349 207.092 154.349 203.563V179.141C154.349 175.612 151.466 172.741 147.923 172.741H102.771Z" fill="#789DFF"/>
<path d="M141.342 198.453C145.281 198.453 148.473 195.274 148.473 191.352C148.473 187.429 145.281 184.25 141.342 184.25C137.404 184.25 134.212 187.429 134.212 191.352C134.212 195.274 137.404 198.453 141.342 198.453Z" fill="#22A7F0"/>
<g opacity="0.7">
<g opacity="0.7">
<g opacity="0.7">
<g opacity="0.7">
<path opacity="0.7" d="M148.473 191.352C148.473 191.838 148.426 192.31 148.334 192.771C147.676 189.524 144.795 187.08 141.344 187.08C137.889 187.08 135.008 189.524 134.35 192.771C134.258 192.31 134.211 191.839 134.211 191.352C134.211 187.427 137.404 184.252 141.344 184.252C145.278 184.252 148.473 187.427 148.473 191.352Z" fill="white"/>
</g>
</g>
</g>
</g>
<g opacity="0.35">
<g opacity="0.35">
<g opacity="0.35">
<g opacity="0.35">
<path opacity="0.35" d="M148.471 191.351C148.471 195.272 145.28 198.451 141.343 198.451C137.406 198.451 134.214 195.272 134.214 191.351C134.214 190.444 134.385 189.578 134.703 188.781C135.73 191.43 138.317 193.306 141.344 193.306C144.37 193.306 146.956 191.43 147.984 188.781C148.3 189.578 148.471 190.443 148.471 191.351Z" fill="#789DFF"/>
</g>
</g>
</g>
</g>
<path d="M141.343 199.829C136.649 199.829 132.831 196.026 132.831 191.352C132.831 186.677 136.649 182.874 141.343 182.874C146.036 182.874 149.855 186.677 149.855 191.352C149.855 196.026 146.036 199.829 141.343 199.829ZM141.343 185.627C138.173 185.627 135.595 188.195 135.595 191.352C135.595 194.508 138.173 197.076 141.343 197.076C144.512 197.076 147.09 194.508 147.09 191.352C147.09 188.195 144.512 185.627 141.343 185.627Z" fill="#789DFF"/>
<path d="M121.138 213.174C120.374 213.174 119.756 212.558 119.756 211.798V195.072L110.727 188.301V170.906C110.727 170.146 111.346 169.53 112.108 169.53C112.871 169.53 113.49 170.147 113.49 170.906V186.927L122.519 193.698V211.798C122.519 212.558 121.901 213.174 121.138 213.174Z" fill="#789DFF"/>
<path d="M126.232 224.946C134.219 224.946 141.9 221.994 147.899 216.741C156.208 209.466 170.197 200.789 185.636 206.354C191.832 208.586 196.053 212.681 198.934 217.211C206.352 200.092 221.913 199.066 228.649 208.768C228.649 208.768 217.327 262.566 213.637 263.763C208.351 265.478 195.65 263.674 195.65 263.674C195.65 263.674 151.464 257.716 126.232 257.716C101 257.716 56.8141 263.674 56.8141 263.674C56.8141 263.674 44.1131 265.477 38.8271 263.763C35.1373 262.566 23.8158 208.768 23.8158 208.768C30.5502 199.065 46.1125 200.092 53.5305 217.211C56.41 212.68 60.6326 208.586 66.8281 206.354C82.2678 200.789 96.2562 209.466 104.566 216.741C110.565 221.993 118.245 224.946 126.232 224.946Z" fill="white"/>
<g opacity="0.35">
<path d="M228.65 208.766C228.65 208.766 217.327 262.565 213.638 263.763C208.354 265.479 195.65 263.676 195.65 263.676C195.65 263.676 151.466 257.716 126.232 257.716C101.003 257.716 56.8136 263.676 56.8136 263.676C56.8136 263.676 44.1136 265.479 38.8307 263.763C35.1409 262.565 23.8184 208.766 23.8184 208.766C24.9284 207.17 26.2735 205.862 27.7846 204.871C31.4147 220.645 36.5639 241.241 38.8307 241.975C44.1147 243.686 56.8136 241.883 56.8136 241.883C56.8136 241.883 101.003 229.963 126.232 229.963C151.466 229.963 195.65 241.883 195.65 241.883C195.65 241.883 208.354 243.686 213.638 241.975C215.904 241.241 221.054 220.645 224.684 204.871C226.195 205.863 227.54 207.171 228.65 208.766Z" fill="#789DFF"/>
</g>
<path d="M45.6394 266.332C42.8683 266.332 40.161 266.126 38.2568 265.508C36.9584 265.087 35.8665 263.653 33.8176 257.296C32.6184 253.574 31.1791 248.392 29.5414 241.893C26.592 230.193 23.7175 217.071 22.6186 211.972C22.0433 209.303 22.9214 206.542 24.9117 204.769C28.7321 201.362 33.853 200.05 38.9598 201.17C42.1786 201.876 45.3103 203.55 48.0166 206.01C50.258 208.049 52.2067 210.595 53.8313 213.607C57.1281 209.416 61.2787 206.403 66.2031 204.628C71.7829 202.617 77.6209 202.217 83.5561 203.441C88.3479 204.43 93.2206 206.479 98.0377 209.533C98.8966 210.078 99.1488 211.212 98.6029 212.067C98.0569 212.923 96.9175 213.174 96.0586 212.63C86.1439 206.343 76.5209 204.813 67.457 208.08C62.3452 209.923 58.1835 213.324 55.0892 218.194C54.7236 218.769 54.0673 219.095 53.3877 219.042C52.707 218.989 52.1115 218.565 51.84 217.939C48.7407 210.786 43.7576 205.981 38.1677 204.757C34.2318 203.894 30.2959 204.896 27.3698 207.505C26.3631 208.402 25.9235 209.82 26.2223 211.205C27.2594 216.017 29.9779 228.433 32.8098 239.777C34.3665 246.012 35.746 251.085 36.9108 254.853C38.5415 260.13 39.3933 261.678 39.6961 262.11C43.8589 263.272 53.2216 262.334 56.5558 261.86C56.5599 261.859 56.5639 261.859 56.568 261.858C57.0106 261.799 101.167 255.883 126.233 255.883C151.3 255.883 195.456 261.799 195.898 261.858C195.902 261.859 195.907 261.859 195.911 261.86C199.247 262.334 208.608 263.272 212.771 262.11C213.069 261.686 213.897 260.183 215.473 255.122C216.611 251.472 217.957 246.553 219.476 240.502C222.185 229.713 224.78 217.974 226.087 211.937C226.515 209.959 225.771 207.931 224.191 206.771C221.176 204.557 217.438 203.896 213.67 204.911C208.269 206.365 203.637 210.992 200.627 217.94C200.357 218.565 199.761 218.99 199.08 219.043C198.398 219.097 197.744 218.77 197.378 218.195C194.284 213.326 190.123 209.924 185.011 208.081C175.867 204.786 166.162 206.37 156.163 212.789C155.307 213.337 154.167 213.092 153.615 212.24C153.064 211.388 153.31 210.252 154.166 209.703C159.013 206.592 163.917 204.497 168.742 203.477C174.736 202.21 180.632 202.599 186.265 204.629C191.19 206.404 195.34 209.418 198.638 213.609C202.099 207.201 207.015 202.899 212.708 201.367C217.514 200.073 222.497 200.965 226.379 203.816C229.124 205.832 230.423 209.322 229.691 212.71C228.307 219.106 225.564 231.497 222.743 242.621C221.143 248.929 219.738 253.954 218.566 257.557C216.566 263.704 215.493 265.095 214.209 265.51C208.606 267.328 196.04 265.586 195.4 265.495C194.707 265.402 150.979 259.554 126.234 259.554C101.485 259.554 57.7611 265.402 57.0683 265.495C56.6429 265.553 51.0227 266.332 45.6394 266.332Z" fill="#789DFF"/>
<path d="M210.356 263.763H213.638C217.491 263.763 220.984 261.512 222.553 258.008C227.465 247.051 236.422 222.976 228.032 208.285C227.788 207.857 227.527 207.444 227.25 207.049C227.25 207.049 219.196 199.752 213.41 210.074C208.005 219.717 196.661 260.947 210.356 263.763Z" fill="#AFAFB2"/>
<g opacity="0.7">
<g opacity="0.7">
<g opacity="0.7">
<g opacity="0.7">
<path opacity="0.7" d="M210.447 216.947C210.591 216.716 210.736 216.498 210.877 216.295C217.991 205.973 227.896 213.27 227.896 213.27C228.235 213.665 228.558 214.078 228.856 214.506C229.85 215.921 230.644 217.421 231.265 218.992C230.863 215.133 229.862 211.485 228.033 208.286C227.788 207.857 227.527 207.445 227.251 207.049C227.251 207.049 219.197 199.753 213.41 210.075C212.532 211.637 211.502 214.024 210.447 216.947Z" fill="white"/>
</g>
</g>
</g>
</g>
<path d="M231.221 220.092C231.138 220.092 231.054 220.085 230.969 220.071L210.838 216.724C210.01 216.587 209.451 215.807 209.589 214.982C209.726 214.158 210.51 213.601 211.337 213.738L231.468 217.085C232.296 217.222 232.855 218.002 232.717 218.827C232.593 219.569 231.95 220.092 231.221 220.092Z" fill="#789DFF"/>
<path d="M231.093 230.925C231.025 230.925 230.957 230.921 230.888 230.911L207.339 227.758C206.507 227.647 205.924 226.885 206.035 226.057C206.147 225.229 206.911 224.648 207.744 224.759L231.293 227.912C232.125 228.023 232.708 228.785 232.597 229.613C232.495 230.374 231.842 230.925 231.093 230.925Z" fill="#789DFF"/>
<path d="M229.016 241.536C228.954 241.536 228.892 241.532 228.829 241.525L204.923 238.611C204.091 238.509 203.498 237.754 203.6 236.925C203.702 236.096 204.458 235.505 205.292 235.607L229.198 238.521C230.031 238.623 230.623 239.377 230.522 240.207C230.428 240.974 229.772 241.536 229.016 241.536Z" fill="#789DFF"/>
<path d="M225.225 253.108C225.179 253.108 225.132 253.106 225.086 253.102L203.713 251.181C202.877 251.107 202.262 250.37 202.336 249.538C202.411 248.706 203.151 248.091 203.986 248.167L225.359 250.088C226.195 250.162 226.812 250.899 226.736 251.731C226.665 252.517 226.001 253.108 225.225 253.108Z" fill="#789DFF"/>
<g opacity="0.35">
<g opacity="0.35">
<g opacity="0.35">
<g opacity="0.35">
<path opacity="0.35" d="M210.355 263.763H213.637C217.489 263.763 220.983 261.512 222.552 258.008C223.822 255.168 225.366 251.454 226.811 247.245C224.841 250.501 220.838 252.566 216.443 252.566H212.532C206.965 251.606 204.871 246.169 204.787 239.041C202.906 251.071 203.422 262.337 210.355 263.763Z" fill="#789DFF"/>
</g>
</g>
</g>
</g>
<path d="M213.638 265.276H210.356C210.253 265.276 210.151 265.266 210.05 265.245C207.397 264.699 205.393 262.986 204.091 260.153C201.023 253.472 202.514 241.834 204.306 233.247C206.496 222.753 209.876 213.275 212.084 209.336C214.114 205.715 216.671 203.63 219.684 203.14C224.304 202.39 228.113 205.784 228.274 205.929C228.358 206.004 228.433 206.09 228.497 206.182C228.8 206.614 229.089 207.071 229.355 207.538C233.19 214.252 234.003 223.437 231.774 234.836C229.961 244.103 226.514 252.887 223.942 258.624C222.132 262.665 218.088 265.276 213.638 265.276ZM210.522 262.25H213.638C216.889 262.25 219.845 260.343 221.165 257.392C223.673 251.799 227.032 243.244 228.79 234.259C230.878 223.591 230.178 215.104 226.713 209.034C226.524 208.703 226.323 208.38 226.113 208.071C225.544 207.608 222.958 205.665 220.156 206.131C218.112 206.47 216.289 208.045 214.738 210.812C212.694 214.458 209.386 223.776 207.281 233.863C204.88 245.375 204.728 254.264 206.855 258.895C207.718 260.774 208.918 261.874 210.522 262.25Z" fill="#789DFF"/>
<path d="M42.1107 263.763H38.8291C34.9763 263.763 31.483 261.512 29.9141 258.008C25.0018 247.051 16.0453 222.976 24.4347 208.285C24.6788 207.857 24.9401 207.444 25.2166 207.049C25.2166 207.049 33.2707 199.752 39.057 210.074C44.4615 219.717 55.8054 260.947 42.1107 263.763Z" fill="#AFAFB2"/>
<g opacity="0.7">
<g opacity="0.7">
<g opacity="0.7">
<g opacity="0.7">
<path opacity="0.7" d="M42.0187 216.947C41.8739 216.716 41.729 216.498 41.5883 216.295C34.4741 205.973 24.5695 213.27 24.5695 213.27C24.2302 213.665 23.9071 214.078 23.6093 214.506C22.6157 215.921 21.8217 217.421 21.2008 218.992C21.6019 215.133 22.6036 211.485 24.4328 208.286C24.6769 207.857 24.9382 207.445 25.2147 207.049C25.2147 207.049 33.2688 199.753 39.0551 210.075C39.9323 211.637 40.9633 214.024 42.0187 216.947Z" fill="white"/>
</g>
</g>
</g>
</g>
<path d="M21.2448 220.092C20.5155 220.092 19.8724 219.568 19.7478 218.828C19.6101 218.004 20.1681 217.224 20.9966 217.086L41.1278 213.739C41.9553 213.602 42.7383 214.157 42.876 214.983C43.0138 215.807 42.4557 216.587 41.6272 216.725L21.496 220.072C21.4119 220.086 21.3278 220.092 21.2448 220.092Z" fill="#789DFF"/>
<path d="M21.3721 230.926C20.6226 230.926 19.9703 230.374 19.868 229.614C19.7566 228.786 20.34 228.024 21.1715 227.913L44.7221 224.759C45.5547 224.647 46.3183 225.229 46.4308 226.057C46.5422 226.885 45.9588 227.647 45.1272 227.758L21.5767 230.912C21.5078 230.922 21.4399 230.926 21.3721 230.926Z" fill="#789DFF"/>
<path d="M23.4503 241.536C22.6937 241.536 22.0384 240.974 21.9442 240.207C21.8419 239.377 22.4344 238.623 23.268 238.521L47.1741 235.606C48.0066 235.506 48.7643 236.095 48.8665 236.925C48.9688 237.754 48.3763 238.509 47.5428 238.611L23.6367 241.525C23.5739 241.533 23.5111 241.536 23.4503 241.536Z" fill="#789DFF"/>
<path d="M27.2418 253.108C26.464 253.108 25.8016 252.517 25.7307 251.731C25.6557 250.899 26.2715 250.163 27.1071 250.088L48.4801 248.167C49.3167 248.092 50.054 248.706 50.13 249.538C50.2049 250.37 49.5891 251.105 48.7535 251.181L27.3806 253.102C27.334 253.106 27.2874 253.108 27.2418 253.108Z" fill="#789DFF"/>
<g opacity="0.35">
<g opacity="0.35">
<g opacity="0.35">
<g opacity="0.35">
<path opacity="0.35" d="M42.1097 263.763H38.8281C34.9752 263.763 31.4819 261.512 29.913 258.008C28.6429 255.168 27.0984 251.454 25.6541 247.245C27.624 250.501 31.6268 252.566 36.0215 252.566H39.9331C45.4997 251.606 47.5942 246.169 47.6773 239.041C49.5591 251.071 49.0416 262.337 42.1097 263.763Z" fill="#789DFF"/>
</g>
</g>
</g>
</g>
<path d="M42.11 265.276H38.8284C34.379 265.276 30.3347 262.665 28.5258 258.624C25.9542 252.888 22.5065 244.104 20.6935 234.837C18.4642 223.438 19.2775 214.253 23.1121 207.538C23.3785 207.071 23.6672 206.615 23.969 206.183C24.0338 206.09 24.1088 206.005 24.1928 205.93C24.3529 205.784 28.1622 202.391 32.7827 203.141C35.7949 203.631 38.3523 205.716 40.3821 209.337C42.5901 213.276 45.9709 222.754 48.1607 233.248C49.9524 241.835 51.4433 253.473 48.3754 260.153C47.0739 262.987 45.0695 264.7 42.4169 265.246C42.3156 265.266 42.2123 265.276 42.11 265.276ZM26.3522 208.072C26.1425 208.38 25.942 208.703 25.7536 209.033C22.2877 215.104 21.5878 223.59 23.6753 234.259C25.4336 243.245 28.7911 251.799 31.2999 257.392C32.6217 260.344 35.5761 262.251 38.8274 262.251H41.9439C43.5472 261.874 44.7484 260.775 45.6114 258.894C47.7373 254.264 47.5864 245.375 45.1849 233.863C43.0803 223.776 39.7723 214.458 37.7284 210.812C36.1778 208.045 34.3547 206.47 32.3107 206.13C29.5133 205.666 26.9285 207.603 26.3522 208.072Z" fill="#789DFF"/>
<path d="M79.153 262.382C78.9373 262.382 78.7185 262.332 78.5139 262.225C77.8373 261.873 77.576 261.04 77.9305 260.366C83.7007 249.386 83.7857 237.036 78.1837 223.662C73.9581 213.575 67.9074 206.673 67.8467 206.605C67.3423 206.035 67.397 205.165 67.9692 204.662C68.5415 204.159 69.4145 204.213 69.9189 204.783C70.1772 205.074 76.2938 212.039 80.7016 222.525C83.3026 228.711 84.753 234.834 85.0143 240.722C85.3425 248.126 83.7827 255.164 80.3785 261.643C80.1314 262.114 79.6503 262.382 79.153 262.382Z" fill="#789DFF"/>
<path d="M173.873 262.382C173.375 262.382 172.895 262.114 172.648 261.643C169.243 255.165 167.684 248.127 168.012 240.723C168.273 234.835 169.724 228.712 172.324 222.525C176.732 212.04 182.849 205.074 183.107 204.784C183.613 204.214 184.486 204.159 185.058 204.663C185.63 205.165 185.685 206.035 185.179 206.605C185.119 206.673 179.068 213.575 174.842 223.662C169.24 237.037 169.325 249.386 175.096 260.366C175.449 261.04 175.188 261.871 174.512 262.225C174.308 262.331 174.089 262.382 173.873 262.382Z" fill="#789DFF"/>
<g opacity="0.35">
<path d="M172.024 130.151C170.43 131.968 168.753 133.693 167.007 135.313C162.862 139.158 158.319 142.429 153.459 145.022C145.25 149.408 136.144 151.867 126.553 151.913C117.183 151.954 108.265 149.687 100.182 145.567C94.8888 142.865 89.9553 139.373 85.4917 135.212C83.2716 133.138 81.1659 130.904 79.1898 128.523C82.7692 127.422 86.3253 126.146 89.5816 124.884C93.6258 115.18 98.3426 105.243 103.843 95.3052H148.622C153.169 103.522 157.181 111.734 160.718 119.823C164.091 121.782 167.974 125.471 172.024 130.151Z" fill="#789DFF"/>
</g>
<path d="M194.613 85.8437C193.833 85.9274 193.133 85.3655 193.049 84.5887L188.678 44.0816C188.594 43.3048 189.159 42.6077 189.938 42.524C198.119 41.6484 205.463 47.5438 206.342 55.6918L207.834 69.5052C208.714 77.6533 202.793 84.968 194.613 85.8437Z" fill="white"/>
<path d="M194.458 86.2008C194.056 86.2008 193.668 86.0657 193.351 85.8104C192.982 85.5149 192.752 85.0942 192.702 84.6261L188.331 44.1189C188.281 43.6508 188.417 43.1908 188.713 42.8246C189.01 42.4584 189.432 42.2284 189.902 42.178C198.263 41.2832 205.794 47.3289 206.692 55.6555L208.182 69.4689C208.618 73.5021 207.45 77.4626 204.893 80.6212C202.338 83.7797 198.7 85.758 194.651 86.1918L194.613 85.8447L194.651 86.1918C194.587 86.1978 194.522 86.2008 194.458 86.2008ZM191.542 42.7863C191.025 42.7863 190.503 42.8135 189.977 42.87C189.693 42.9003 189.437 43.0395 189.258 43.2604C189.079 43.4824 188.997 43.7598 189.027 44.0433L193.398 84.5504C193.428 84.8339 193.568 85.0881 193.791 85.2667C194.013 85.4452 194.292 85.527 194.577 85.4967C198.441 85.0831 201.911 83.1956 204.35 80.1824C206.788 77.1691 207.903 73.3901 207.487 69.5416L205.997 55.7281C205.195 48.3084 198.873 42.7863 191.542 42.7863Z" fill="#789DFF"/>
<g opacity="0.35">
<g opacity="0.35">
<g opacity="0.35">
<g opacity="0.35">
<path opacity="0.35" d="M207.135 63.0277L207.836 69.5062C208.714 77.6512 202.795 84.968 194.614 85.8467C193.834 85.9314 193.134 85.3645 193.05 84.5887L191.884 73.8208C192.155 74.2879 192.686 74.5744 193.258 74.5179L194.223 74.412C200.687 73.7209 205.743 69.0048 207.135 63.0277Z" fill="#789DFF"/>
</g>
</g>
</g>
</g>
<path d="M194.456 87.7937C193.69 87.7937 192.953 87.5355 192.348 87.0503C191.647 86.4884 191.209 85.6874 191.113 84.7966L186.742 44.2895C186.646 43.3987 186.904 42.523 187.468 41.825C188.032 41.1269 188.837 40.6901 189.731 40.5942C198.966 39.6056 207.289 46.2859 208.281 55.4851L209.771 69.2985C210.252 73.7543 208.962 78.1305 206.138 81.6209C203.314 85.1104 199.295 87.2964 194.821 87.7746C194.7 87.7867 194.577 87.7937 194.456 87.7937ZM194.407 83.9139H194.406C194.406 83.9139 194.406 83.9139 194.407 83.9139ZM190.676 44.4085L194.931 83.8483C198.159 83.3722 201.046 81.7299 203.106 79.1847C205.276 76.5023 206.268 73.139 205.898 69.7131L204.408 55.8997C203.664 49.0036 197.562 43.9485 190.676 44.4085Z" fill="#789DFF"/>
<path d="M55.6979 56.8922C56.4777 56.8085 57.1776 57.3704 57.2617 58.1471L61.6321 98.6544C61.7162 99.4311 61.152 100.128 60.3721 100.212C52.1914 101.088 44.8473 95.1922 43.9681 87.0441L42.4783 73.2307C41.5971 65.0826 47.5171 57.7678 55.6979 56.8922Z" fill="white"/>
<path d="M58.768 100.647C51.0846 100.648 44.4576 94.8593 43.6189 87.0815L42.1291 73.268C41.2307 64.9414 47.3006 57.44 55.6606 56.5452L55.6981 56.8923L55.6606 56.5452C56.6299 56.4413 57.505 57.1434 57.6093 58.1099L61.9797 98.6171C62.0841 99.5835 61.3791 100.454 60.4088 100.558C59.8589 100.618 59.3099 100.647 58.768 100.647ZM55.85 57.2322C55.8115 57.2322 55.7741 57.2342 55.7346 57.2383C47.7584 58.0917 41.967 65.2491 42.8249 73.1934L44.3148 87.0068C45.1716 94.9511 52.3567 100.719 60.3339 99.866C60.9203 99.8034 61.3467 99.2768 61.2839 98.6927L56.9135 58.1855C56.8548 57.6388 56.3889 57.2322 55.85 57.2322Z" fill="#789DFF"/>
<g opacity="0.35">
<g opacity="0.35">
<g opacity="0.35">
<g opacity="0.35">
<path opacity="0.35" d="M60.4235 87.4165L61.6348 98.6545C61.7199 99.4313 61.1507 100.128 60.3718 100.212C56.0774 100.67 52.0098 99.2648 48.9895 96.644C46.2619 94.2773 44.3882 90.914 43.9699 87.0463L43.3419 81.2255C46.2153 86.0839 51.7728 89.0871 57.7708 88.4465L59.2547 88.2871C59.7955 88.2286 60.2239 87.8805 60.4235 87.4165Z" fill="#789DFF"/>
</g>
</g>
</g>
</g>
<path d="M58.7671 102.239C50.2775 102.24 42.9567 95.8449 42.0299 87.2509L40.54 73.4375C39.5474 64.2383 46.2545 55.95 55.4906 54.9614C57.336 54.7637 59.0011 56.0993 59.1996 57.9384L63.57 98.4465C63.7685 100.287 62.4275 101.943 60.5801 102.141C59.9714 102.207 59.3657 102.239 58.7671 102.239ZM55.3812 58.8886C48.5546 59.8974 43.6707 66.1278 44.4141 73.0239L45.904 86.8373C46.6485 93.7335 52.7498 98.7875 59.6361 98.3285L55.3812 58.8886Z" fill="#789DFF"/>
<path d="M125.162 140.793C163.659 140.793 194.866 109.71 194.866 71.3674C194.866 33.0249 163.659 1.94212 125.162 1.94212C86.6661 1.94212 55.4587 33.0249 55.4587 71.3674C55.4587 109.71 86.6661 140.793 125.162 140.793Z" fill="white"/>
<path d="M125.095 141.143C116.549 141.143 108.2 139.616 100.24 136.595C91.7759 133.383 84.1077 128.624 77.4462 122.452C70.7848 116.279 65.4674 109.004 61.6399 100.827C57.6776 92.3615 55.496 83.2964 55.1546 73.8834C54.8133 64.4703 56.3336 55.2721 59.6729 46.544C62.8978 38.1135 67.6764 30.4759 73.8729 23.8411C80.0695 17.2062 87.3761 11.909 95.5862 8.0968C104.086 4.15039 113.187 1.97744 122.638 1.63748C132.089 1.29752 141.324 2.81172 150.087 6.13772C158.551 9.34972 166.22 14.1092 172.881 20.281C179.543 26.4538 184.86 33.7293 188.687 41.9056C192.65 50.3714 194.831 59.4364 195.173 68.8495C195.514 78.2625 193.994 87.4607 190.654 96.1888C187.43 104.619 182.651 112.257 176.453 118.892C170.256 125.527 162.951 130.823 154.742 134.635C146.242 138.581 137.141 140.754 127.69 141.094C126.822 141.127 125.957 141.143 125.095 141.143ZM125.196 2.28916C124.353 2.28916 123.512 2.30429 122.662 2.33456C84.446 3.70854 54.476 35.7933 55.8545 73.8571C56.522 92.2959 64.3593 109.373 77.9223 121.94C90.8573 133.927 107.526 140.444 125.1 140.445C125.953 140.445 126.806 140.43 127.663 140.398C146.176 139.733 163.321 131.927 175.939 118.419C188.557 104.91 195.138 87.3155 194.471 68.8767C193.124 31.6582 162.291 2.28916 125.196 2.28916Z" fill="#789DFF"/>
<g opacity="0.35">
<g opacity="0.35">
<g opacity="0.35">
<g opacity="0.35">
<path opacity="0.35" d="M193.807 59.2842C194.364 62.4054 194.705 65.6033 194.824 68.8647C196.206 107.182 166.146 139.364 127.676 140.749C89.205 142.126 56.8933 112.186 55.5027 73.8703C55.4622 72.7687 55.448 71.6651 55.4612 70.5766C61.3802 104.182 91.418 129.139 126.617 127.875C163.982 126.53 193.408 96.1365 193.807 59.2842Z" fill="#789DFF"/>
</g>
</g>
</g>
</g>
<path d="M125.095 142.735C116.353 142.735 107.814 141.173 99.6714 138.083C91.0147 134.797 83.1703 129.93 76.3579 123.617C69.5455 117.304 64.1066 109.862 60.1919 101.499C56.1386 92.8397 53.9073 83.5668 53.5589 73.9399C53.2104 64.3129 54.7652 54.9039 58.1815 45.9761C61.4803 37.3539 66.3672 29.5408 72.7056 22.7556C79.0439 15.9705 86.5136 10.5522 94.9111 6.65426C103.605 2.61707 112.915 0.394691 122.581 0.0476656C132.247 -0.29936 141.693 1.24914 150.657 4.65181C159.314 7.93745 167.158 12.8049 173.97 19.1179C180.783 25.431 186.222 32.8728 190.136 41.2358C194.19 49.8952 196.421 59.1681 196.769 68.795C197.118 78.422 195.563 87.831 192.147 96.7588C188.848 105.381 183.961 113.194 177.623 119.979C171.284 126.764 163.813 132.182 155.416 136.081C146.722 140.118 137.412 142.34 127.746 142.687C126.861 142.718 125.976 142.735 125.095 142.735ZM125.196 3.8821C124.373 3.8821 123.551 3.89723 122.722 3.92648C85.3853 5.26818 56.1062 36.6135 57.4532 73.8007C58.1055 91.8147 65.7626 108.497 79.0125 120.776C91.6497 132.486 107.933 138.854 125.104 138.854C125.936 138.854 126.771 138.839 127.608 138.808C145.694 138.159 162.443 130.532 174.772 117.335C187.1 104.138 193.529 86.9493 192.876 68.9352C191.558 32.5732 161.435 3.8821 125.196 3.8821Z" fill="#789DFF"/>
<path d="M194.665 70.6543C195.363 84.2215 191.588 97.0443 184.562 107.852C179.294 115.954 156.691 130.818 127.924 132.543C101.251 134.143 76.2427 121.21 70.1717 113.686C62.0731 103.65 57.0038 91.2791 56.3059 77.7118C54.4595 41.8077 84.6655 25.3432 122.875 23.3942C161.082 21.4452 192.819 34.7502 194.665 70.6543Z" fill="#3949AB"/>
<path d="M123.294 134.015C110.031 134.015 98.4953 130.722 90.8382 127.78C81.1423 124.056 72.6193 118.851 69.126 114.522C60.5523 103.897 55.6562 91.1913 54.9665 77.7794C54.5087 68.8798 55.9823 60.8044 59.344 53.7771C62.5091 47.1634 67.3636 41.4335 73.7749 36.7446C85.4874 28.1779 102.441 23.1007 122.803 22.0626C143.167 21.0246 160.552 24.3495 173.082 31.6795C179.94 35.6914 185.358 40.8978 189.184 47.1554C193.25 53.8033 195.544 61.6871 196 70.5867C196.69 83.9986 193.122 97.1351 185.684 108.577C182.593 113.33 174.917 119.157 165.653 123.781C157.515 127.844 144.376 132.893 128.002 133.874C126.412 133.969 124.84 134.015 123.294 134.015ZM129.994 24.5432C127.687 24.5432 125.338 24.6038 122.941 24.7258C103.103 25.7376 86.6501 30.6374 75.36 38.8944C62.7552 48.1137 56.7936 61.1514 57.6414 77.6432C58.3017 90.4912 62.9952 102.666 71.2134 112.851C73.6584 115.882 80.5174 120.958 91.8025 125.293C100.105 128.481 113.095 132.097 127.842 131.212C143.763 130.257 156.54 125.347 164.455 121.397C175.06 116.102 181.309 110.401 183.438 107.127C190.569 96.1596 193.989 83.5709 193.329 70.7229C192.481 54.2311 185.213 41.8683 171.728 33.9795C161.108 27.7673 146.781 24.5432 129.994 24.5432Z" fill="#789DFF"/>
<g opacity="0.5">
<g opacity="0.5">
<g opacity="0.5">
<g opacity="0.5">
<path d="M180.788 68.0592C181.658 61.3294 178.394 55.3648 173.498 54.7369C168.602 54.109 163.928 59.0556 163.058 65.7854C162.188 72.5152 165.451 78.4798 170.347 79.1077C175.243 79.7355 179.918 74.789 180.788 68.0592Z" fill="white"/>
</g>
</g>
</g>
</g>
<g opacity="0.5">
<g opacity="0.5">
<g opacity="0.5">
<g opacity="0.5">
<path d="M166.933 93.0737C167.757 90.0695 166.327 87.063 163.739 86.3586C161.15 85.6541 158.384 87.5183 157.56 90.5225C156.735 93.5266 158.166 96.5331 160.754 97.2376C163.342 97.9421 166.109 96.0779 166.933 93.0737Z" fill="white"/>
</g>
</g>
</g>
</g>
<g opacity="0.35">
<path d="M179.488 37.8453C188.358 45.4516 193.921 56.2326 194.664 70.6523C195.362 84.2226 191.585 97.0444 184.564 107.852C179.294 115.954 156.689 130.817 127.922 132.546C117.765 133.158 107.852 131.659 99.1299 129.15C134.445 126.275 161.973 108.043 168.505 97.9937C177.424 84.2771 182.214 68.0012 181.326 50.7851C181.093 46.183 180.462 41.8744 179.488 37.8453Z" fill="#789DFF"/>
</g>
<path d="M59.9405 48.6968C59.5475 48.6968 59.1525 48.5747 58.8142 48.3215C58.0181 47.7243 57.8348 46.6177 58.3767 45.8016C61.2694 41.0683 64.9632 36.7426 69.3549 32.9455C73.6311 29.2492 78.6041 26.0221 84.1352 23.3538C89.5509 20.7421 95.5368 18.6498 101.926 17.1346C108.257 15.6335 115.016 14.6913 122.016 14.3342C128.902 13.9832 135.648 14.2202 142.069 15.0373C148.548 15.8625 154.708 17.2819 160.377 19.2541C166.177 21.2727 171.485 23.8794 176.152 27.0017C180.95 30.2116 185.099 33.9865 188.488 38.2225C189.08 38.8752 189.14 39.8749 188.586 40.6012C187.96 41.4224 186.785 41.5818 185.96 40.9583L185.764 40.8131L185.616 40.6254C173.068 24.8721 149.956 16.6484 122.208 18.0637C94.3062 19.4871 72.1979 30.3216 61.5509 47.7889L61.5023 47.8686L61.4385 47.9523C61.0719 48.4396 60.5097 48.6968 59.9405 48.6968Z" fill="#789DFF"/>
<g opacity="0.5">
<g opacity="0.5">
<g opacity="0.5">
<g opacity="0.5">
<path d="M72.9398 98.2782C72.9398 98.2782 59.9541 63.4284 78.3939 48.3358C96.8337 33.2432 124.41 31.8944 123.856 33.6881C123.856 33.6881 93.7091 42.6058 83.0003 67.2507C74.7426 86.2554 72.9398 98.2782 72.9398 98.2782Z" fill="white"/>
</g>
</g>
</g>
</g>
<path d="M188.334 267.758H64.7109C60.7082 267.758 57.463 264.525 57.463 260.539C57.463 258.242 59.3327 256.379 61.639 256.379H191.406C193.712 256.379 195.582 258.242 195.582 260.539C195.582 264.526 192.337 267.758 188.334 267.758Z" fill="#E6E9FA"/>
<g opacity="0.3">
<g opacity="0.3">
<g opacity="0.3">
<g opacity="0.3">
<path opacity="0.3" d="M195.58 260.54C195.58 261.329 195.451 262.086 195.216 262.797C194.567 261.343 193.107 260.334 191.407 260.334H61.64C60.4884 260.334 59.4431 260.797 58.6875 261.555C58.328 261.913 58.0332 262.33 57.8266 262.798C57.5916 262.087 57.463 261.331 57.463 260.541C57.463 259.394 57.9279 258.353 58.6886 257.6C59.4441 256.843 60.4894 256.379 61.641 256.379H191.407C193.714 256.378 195.58 258.241 195.58 260.54Z" fill="white"/>
</g>
</g>
</g>
</g>
<g opacity="0.35">
<g opacity="0.35">
<g opacity="0.35">
<g opacity="0.35">
<path opacity="0.35" d="M195.58 260.54C195.58 262.531 194.77 264.339 193.456 265.641C192.147 266.949 190.332 267.757 188.334 267.757H64.7128C60.7101 267.757 57.4619 264.527 57.4619 260.54C57.4619 259.773 57.6695 259.053 58.0372 258.433C59.1331 261.017 61.7128 262.834 64.7118 262.834H188.333C190.332 262.834 192.147 262.027 193.455 260.718C194.109 260.067 194.639 259.292 195.003 258.433C195.373 259.053 195.58 259.773 195.58 260.54Z" fill="#789DFF"/>
</g>
</g>
</g>
</g>
<path d="M188.335 269.594H64.7116C59.699 269.594 55.6213 265.532 55.6213 260.54C55.6213 257.235 58.3216 254.546 61.6396 254.546H191.407C194.725 254.546 197.425 257.235 197.425 260.54C197.425 265.531 193.347 269.594 188.335 269.594ZM61.6386 258.216C60.3523 258.216 59.305 259.258 59.305 260.54C59.305 263.509 61.7298 265.924 64.7106 265.924H188.335C191.316 265.924 193.74 263.509 193.74 260.54C193.74 259.259 192.694 258.216 191.407 258.216H61.6386Z" fill="#789DFF"/>
<path d="M202.798 175.106L190.707 256.377H62.3407L61.9031 253.437L50.2433 175.106C49.8615 172.533 51.8649 170.224 54.4719 170.224H198.569C201.182 170.224 203.18 172.533 202.798 175.106Z" fill="#FF66AC"/>
<path d="M202.798 175.106L190.707 256.377H62.3407L61.9031 253.437L50.2433 175.106C49.8615 172.533 51.8649 170.224 54.4719 170.224H198.569C201.182 170.224 203.18 172.533 202.798 175.106Z" fill="#E6E9FA"/>
<g opacity="0.5">
<g opacity="0.5">
<g opacity="0.5">
<g opacity="0.5">
<path opacity="0.5" d="M54.8017 180.151C54.4199 177.578 56.4232 175.269 59.0303 175.269H202.775L202.799 175.107C203.181 172.534 201.182 170.225 198.57 170.225H54.4735C51.8665 170.225 49.8631 172.534 50.2449 175.107L61.9037 253.438L62.3413 256.379H66.1485L54.8017 180.151Z" fill="white"/>
</g>
</g>
</g>
</g>
<g opacity="0.35">
<g opacity="0.35">
<g opacity="0.35">
<g opacity="0.35">
<path opacity="0.35" d="M194.518 170.224H184.4C188.237 184.224 186.12 215.838 161.368 232.36C130.296 253.101 74.2983 252.969 62.4095 253.437L62.8471 256.377H186.656L198.747 175.106C199.129 172.533 197.13 170.224 194.518 170.224Z" fill="#789DFF"/>
</g>
</g>
</g>
</g>
<path d="M192.295 258.216H60.7511L48.4238 175.374C48.1625 173.62 48.6801 171.845 49.8428 170.502C51.0055 169.159 52.694 168.389 54.4735 168.389H198.572C200.353 168.389 202.04 169.159 203.203 170.502C204.366 171.845 204.883 173.62 204.622 175.374L192.295 258.216ZM63.9304 254.545H189.115L200.977 174.836C201.082 174.128 200.882 173.44 200.413 172.899C199.944 172.357 199.29 172.059 198.572 172.059H54.4735C53.7554 172.059 53.1021 172.358 52.6332 172.899C52.1642 173.44 51.9637 174.128 52.069 174.836L63.9304 254.545Z" fill="#789DFF"/>
<g opacity="0.3">
<g opacity="0.3">
<g opacity="0.3">
<g opacity="0.3">
<path opacity="0.3" d="M72.5587 237.39C67.689 226.699 64.143 208.449 64.9422 197.708C65.7413 186.968 71.9956 190.254 73.9342 204.012C79.0926 240.627 74.7323 242.164 72.5587 237.39Z" fill="white"/>
</g>
</g>
</g>
</g>
<path d="M143.294 204.081C143.451 202.709 143.633 201.321 143.363 199.926C143.242 199.775 143.132 199.62 143.011 199.468C142.612 199.325 142.224 199.138 141.809 199.035C138.888 198.283 135.926 197.985 132.918 198.244C128.995 198.581 125.395 199.786 122.298 202.27C121.177 203.166 120.155 204.177 119.109 205.159C118.828 205.425 118.613 205.536 118.219 205.357C117.292 204.937 116.293 204.749 115.279 204.699C112.56 204.576 110.133 205.451 107.87 206.867C105.416 208.406 103.439 210.463 101.598 212.665C100.814 213.599 101.119 214.639 102.286 215.031C103.022 215.27 103.758 215.505 104.495 215.745C106.259 216.314 108.019 216.878 109.779 217.446C109.775 217.501 109.78 217.529 109.772 217.556C109.757 217.59 109.742 217.63 109.718 217.663C108.984 218.603 109.162 219.473 109.936 220.29C110.019 220.381 110.091 220.489 110.164 220.586C110.569 221.117 110.983 221.654 111.412 222.207C110.826 222.658 110.25 223.041 109.74 223.504C109.483 223.737 109.256 224.076 109.159 224.412C108.994 224.954 109.275 225.507 109.759 225.792C110.273 226.1 110.802 226.086 111.28 225.743C111.886 225.314 112.466 224.848 113.083 224.379C113.665 225.143 114.217 225.867 114.771 226.581C115.406 227.395 115.844 227.534 116.828 227.263C117.007 227.207 117.185 227.169 117.396 227.117C117.41 227.327 117.427 227.496 117.436 227.653C117.561 230.187 117.677 232.725 117.817 235.252C117.88 236.451 118.83 237.017 119.917 236.503C120.899 236.042 121.879 235.554 122.841 235.035C125.058 233.833 127.076 232.362 128.685 230.406C130.7 227.945 131.815 225.196 131.294 221.947C131.271 221.819 131.379 221.6 131.49 221.535C132.479 220.9 133.493 220.306 134.483 219.666C136.719 218.215 138.517 216.328 139.923 214.075C141.833 211.011 142.888 207.65 143.294 204.081ZM111.234 215.046C109.197 214.385 107.086 213.699 104.916 212.996C107.157 210.624 109.53 208.552 112.724 207.677C114.105 207.299 115.7 207.331 116.642 207.712C114.853 210.143 113.06 212.575 111.234 215.046ZM128.366 225.474C127.849 227.119 126.86 228.459 125.643 229.654C124.13 231.121 122.368 232.217 120.464 233.216C120.35 230.885 120.232 228.605 120.117 226.373C122.996 225.257 125.812 224.169 128.642 223.073C128.751 223.85 128.618 224.673 128.366 225.474ZM138.999 209.872C138.072 212.05 136.857 214.033 135.123 215.676C133.785 216.936 132.268 217.946 130.67 218.845C126.337 221.282 121.693 222.961 116.945 224.382C116.713 224.448 116.571 224.436 116.418 224.224C116.087 223.755 115.715 223.303 115.365 222.84C115.341 222.814 115.333 222.771 115.3 222.688C115.421 222.591 115.551 222.495 115.682 222.395C118.391 220.323 121.113 218.258 123.824 216.182C124.607 215.59 124.641 214.572 123.916 213.985C123.41 213.572 122.742 213.578 122.158 214.016C120.527 215.255 118.9 216.494 117.274 217.738C116.06 218.662 114.857 219.582 113.597 220.544C113.165 219.981 112.747 219.468 112.371 218.927C112.307 218.83 112.372 218.586 112.459 218.466C113.903 216.319 115.335 214.161 116.838 212.052C118.325 209.958 120.016 208.023 121.875 206.247C123.618 204.57 125.508 203.089 127.792 202.206C129.257 201.638 130.768 201.252 132.329 201.085C132.47 201.065 132.676 201.206 132.776 201.337C134.363 203.38 135.931 205.427 137.504 207.478C137.976 208.088 138.442 208.711 138.928 209.314C139.074 209.496 139.092 209.651 138.999 209.872ZM139.94 207.013C138.372 204.967 136.841 202.977 135.307 200.977C135.309 200.932 135.323 200.879 135.33 200.829C137.115 201.042 138.905 201.26 140.713 201.476C140.68 203.416 140.392 205.192 139.94 207.013Z" fill="#789DFF"/>
<path d="M138.931 209.313C138.444 208.71 137.979 208.087 137.507 207.477C135.935 205.426 134.366 203.379 132.779 201.336C132.679 201.205 132.473 201.064 132.331 201.084C130.77 201.251 129.259 201.637 127.795 202.205C125.51 203.088 123.621 204.569 121.878 206.246C120.018 208.022 118.328 209.957 116.841 212.051C115.338 214.161 113.906 216.319 112.461 218.465C112.374 218.585 112.309 218.829 112.373 218.926C112.749 219.467 113.166 219.98 113.6 220.543C114.86 219.581 116.063 218.66 117.276 217.737C118.903 216.493 120.53 215.253 122.16 214.015C122.745 213.577 123.411 213.572 123.918 213.984C124.644 214.572 124.61 215.59 123.826 216.181C121.116 218.257 118.393 220.322 115.684 222.394C115.553 222.494 115.423 222.59 115.302 222.687C115.336 222.77 115.344 222.813 115.367 222.839C115.718 223.302 116.089 223.754 116.42 224.223C116.573 224.435 116.715 224.447 116.947 224.38C121.695 222.96 126.339 221.28 130.672 218.844C132.269 217.946 133.788 216.935 135.126 215.675C136.859 214.032 138.075 212.049 139.002 209.871C139.093 209.651 139.075 209.496 138.931 209.313ZM134.176 212.436C132.104 213.991 129.173 213.611 127.617 211.576C126.052 209.544 126.447 206.627 128.499 205.051C130.513 203.506 133.445 203.905 135.016 205.938C136.569 207.958 136.19 210.919 134.176 212.436Z" fill="white"/>
<path d="M139.94 207.012C138.371 204.969 136.839 202.977 135.307 200.977C135.312 200.93 135.322 200.881 135.329 200.829C137.115 201.044 138.906 201.261 140.716 201.477C140.681 203.414 140.39 205.192 139.94 207.012Z" fill="#DB2C2C"/>
<path d="M116.642 207.713C114.852 210.141 113.059 212.575 111.235 215.048C109.195 214.383 107.083 213.699 104.915 212.997C107.158 210.622 109.529 208.55 112.724 207.677C114.104 207.298 115.697 207.331 116.642 207.713Z" fill="#DB2C2C"/>
<path d="M125.64 229.654C124.128 231.122 122.369 232.219 120.463 233.216C120.347 230.887 120.231 228.607 120.116 226.373C122.996 225.258 125.811 224.171 128.645 223.072C128.753 223.851 128.616 224.672 128.368 225.476C127.85 227.121 126.862 228.46 125.64 229.654Z" fill="#DB2C2C"/>
<path d="M135.015 205.938C133.445 203.905 130.512 203.507 128.497 205.051C126.445 206.628 126.05 209.544 127.616 211.576C129.172 213.611 132.103 213.991 134.174 212.436C136.19 210.919 136.568 207.958 135.015 205.938ZM132.778 210.72C131.729 211.512 130.188 211.304 129.37 210.259C128.524 209.183 128.755 207.601 129.875 206.774C130.923 205.991 132.494 206.218 133.283 207.267C134.107 208.359 133.88 209.891 132.778 210.72Z" fill="#789DFF"/>
<path d="M132.777 210.72C131.728 211.512 130.186 211.303 129.367 210.257C128.525 209.183 128.753 207.601 129.872 206.774C130.923 205.993 132.491 206.217 133.28 207.265C134.105 208.358 133.881 209.892 132.777 210.72Z" fill="#22A7F0"/>
<path d="M202.161 179.394C202.161 179.394 192.213 174.692 182.871 178.91C173.924 182.949 167.595 211.706 179.186 218.991C186.34 223.487 191.21 219.515 195.257 220.681C201.26 222.41 213.576 192.801 202.161 179.394Z" fill="white"/>
<g opacity="0.35">
<path d="M206.65 198.109C205.471 210.162 199.082 221.783 195.259 220.681C191.209 219.516 186.341 223.489 179.187 218.993C173.65 215.51 172.203 207.133 173.18 198.883C173.838 203.696 175.704 207.82 179.187 210.009C186.341 214.5 191.104 212.413 195.259 211.698C200.395 210.812 204.582 205.225 206.65 198.109Z" fill="#789DFF"/>
</g>
<path d="M186.522 223.025C184.108 223.025 181.315 222.499 178.202 220.543C175.416 218.792 173.403 215.958 172.221 212.121C171.229 208.901 170.858 204.976 171.148 200.773C171.491 195.794 172.721 190.687 174.608 186.391C176.05 183.11 178.522 178.858 182.109 177.239C192.115 172.721 202.512 177.529 202.95 177.736L203.308 177.905L203.565 178.207C208.789 184.342 209.091 192.819 208.423 198.849C207.672 205.643 205.264 212.85 202.14 217.658C199.01 222.473 196.39 222.919 194.743 222.445C193.674 222.137 192.324 222.352 190.76 222.601C189.525 222.799 188.105 223.025 186.522 223.025ZM191.386 178.984C188.586 178.984 185.99 179.517 183.632 180.583C181.692 181.458 179.633 184.112 177.985 187.864C176.288 191.726 175.136 196.523 174.825 201.026C174.276 208.977 176.224 214.96 180.169 217.44C184.146 219.94 187.214 219.45 190.18 218.977C192.097 218.672 193.908 218.383 195.769 218.919C195.983 218.956 197.516 218.367 199.678 214.635C204.721 205.935 207.92 189.502 201.02 180.9C200.238 180.577 198.226 179.815 195.593 179.359C194.145 179.109 192.741 178.984 191.386 178.984Z" fill="#789DFF"/>
</svg>
